<?xml version="1.0" encoding="UTF-8"?>
<svg xmlns="http://www.w3.org/2000/svg" xmlns:xlink="http://www.w3.org/1999/xlink" width="16px" height="15px" viewBox="0 0 16 15" version="1.1">
<g id="surface1">
<path style=" stroke:none;fill-rule:nonzero;fill:rgb(89.019608%,3.921569%,9.019608%);fill-opacity:1;" d="M 7.96875 1.660156 L 14.53125 8.339844 L 7.96875 15.015625 L 1.40625 8.339844 Z M 7.96875 1.660156 "/>
<path style=" stroke:none;fill-rule:nonzero;fill:rgb(89.019608%,3.921569%,9.019608%);fill-opacity:1;" d="M 9.515625 4.902344 C 9.515625 7.574219 7.382812 9.742188 4.757812 9.742188 C 2.128906 9.742188 0 7.574219 0 4.902344 C 0 2.230469 2.128906 0.0625 4.757812 0.0625 C 7.382812 0.0625 9.515625 2.230469 9.515625 4.902344 Z M 9.515625 4.902344 "/>
<path style=" stroke:none;fill-rule:nonzero;fill:rgb(89.019608%,3.921569%,9.019608%);fill-opacity:1;" d="M 16 4.839844 C 16 7.515625 13.871094 9.679688 11.242188 9.679688 C 8.613281 9.679688 6.484375 7.515625 6.484375 4.839844 C 6.484375 2.167969 8.613281 0 11.242188 0 C 13.871094 0 16 2.167969 16 4.839844 Z M 16 4.839844 "/>
</g>
</svg>
